<?xml version="1.0" encoding="utf-8"?>
<!-- Generator: Adobe Illustrator 23.0.1, SVG Export Plug-In . SVG Version: 6.00 Build 0)  -->
<svg version="1.1"
	 id="Layer_1" xmlns:cc="http://creativecommons.org/ns#" xmlns:dc="http://purl.org/dc/elements/1.1/" xmlns:inkscape="http://www.inkscape.org/namespaces/inkscape" xmlns:rdf="http://www.w3.org/1999/02/22-rdf-syntax-ns#" xmlns:sodipodi="http://sodipodi.sourceforge.net/DTD/sodipodi-0.dtd" xmlns:svg="http://www.w3.org/2000/svg"
	 xmlns="http://www.w3.org/2000/svg" xmlns:xlink="http://www.w3.org/1999/xlink" x="0px" y="0px" viewBox="0 0 160 160"
	 style="enable-background:new 0 0 160 160;" xml:space="preserve">
<style type="text/css">
	.st0{fill-rule:evenodd;clip-rule:evenodd;fill:#FFFFFF;}
	.st1{fill:#1D3A6B;}
	.st2{fill:#FFFFFF;}
</style>
<sodipodi:namedview  bordercolor="#666666" borderopacity="1" fit-margin-bottom="0" fit-margin-left="0" fit-margin-right="0" fit-margin-top="0" gridtolerance="10" guidetolerance="10" id="namedview16" inkscape:bbox-nodes="true" inkscape:bbox-paths="true" inkscape:current-layer="Layer_1" inkscape:cx="57.814339" inkscape:cy="72.675931" inkscape:document-rotation="0" inkscape:pageopacity="0" inkscape:pageshadow="2" inkscape:snap-bbox="true" inkscape:snap-bbox-edge-midpoints="true" inkscape:snap-bbox-midpoints="true" inkscape:snap-page="true" inkscape:window-height="812" inkscape:window-maximized="1" inkscape:window-width="1440" inkscape:window-x="0" inkscape:window-y="23" inkscape:zoom="2.8284271" objecttolerance="10" pagecolor="#ffffff" showgrid="false" units="px">
	</sodipodi:namedview>
<circle id="circle1050" inkscape:export-filename="nextcloud-icon.png" inkscape:export-xdpi="300" inkscape:export-ydpi="300" class="st0" cx="80" cy="80" r="79">
</circle>
<g>
	<g>
		<g id="Layer_1-2">
			<g id="Box">
				<path class="st1" d="M146.7,81.5c0,14.2-11.5,25.7-25.7,25.7l0,0H25.9c-7.3,0-13.4-5.9-13.4-13.3c0-7.3,6-13.4,13.4-13.4
					c1,0,2,0.1,3,0.3c-0.1-0.7-0.1-1.6,0-2.3c-0.1-8.4,6.7-15.2,15.2-15.2c2.8,0,5.6,0.7,8,2.2c4.9-17.3,23-27.4,40.4-22.5
					c7.9,2.2,14.6,7.3,18.9,14.4c3.1-1.2,6.3-1.9,9.6-1.9C135.2,55.7,146.7,67.3,146.7,81.5z"/>
			</g>
		</g>
	</g>
	<g>
		<path class="st2" d="M68.7,83.6V68.7h14c3.2,0,5.8,0.9,7.7,2.8c1.9,1.9,2.9,4.3,2.9,7.2c0,2.9-1,5.3-2.9,7.2
			c-1.9,1.9-4.5,2.8-7.7,2.8h-8.5v5.5L68.7,98v-9.2V83.6z M74.1,83.6h8.1c1.8,0,3.2-0.5,4.1-1.4c0.9-0.9,1.4-2.1,1.4-3.5
			s-0.5-2.6-1.4-3.5c-0.9-0.9-2.3-1.4-4.1-1.4h-8.1V83.6z"/>
		<path class="st2" d="M96.5,75.3v-3.9l4.8-3.4v7.2h6.3l-2.5,4.6h-3.8v9c0,1.2,0.2,2.1,0.5,2.8c0.3,0.6,0.8,1.2,1.5,1.6l2.6,1.5
			l-2.1,3.8c-2.7-1.3-4.6-2.5-5.7-3.7c-1.1-1.2-1.6-2.9-1.6-5.1v-9.8V75.3z"/>
	</g>
</g>
</svg>
