<?xml version="1.0" encoding="utf-8"?>
<!-- Generator: Adobe Illustrator 23.0.1, SVG Export Plug-In . SVG Version: 6.00 Build 0)  -->
<svg version="1.1"
	 id="svg10" xmlns:cc="http://creativecommons.org/ns#" xmlns:dc="http://purl.org/dc/elements/1.1/" xmlns:inkscape="http://www.inkscape.org/namespaces/inkscape" xmlns:rdf="http://www.w3.org/1999/02/22-rdf-syntax-ns#" xmlns:sodipodi="http://sodipodi.sourceforge.net/DTD/sodipodi-0.dtd" xmlns:svg="http://www.w3.org/2000/svg"
	 xmlns="http://www.w3.org/2000/svg" xmlns:xlink="http://www.w3.org/1999/xlink" x="0px" y="0px" viewBox="0 0 200 100"
	 style="enable-background:new 0 0 200 100;" xml:space="preserve">
<style type="text/css">
	.st0{fill:#1D3A6B;}
	.st1{fill:#FFFFFF;}
</style>
<sodipodi:namedview  bordercolor="#666666" borderopacity="1" gridtolerance="10" guidetolerance="10" id="namedview12" inkscape:current-layer="svg10" inkscape:cx="63.321716" inkscape:cy="64.000003" inkscape:document-rotation="0" inkscape:pageopacity="0" inkscape:pageshadow="2" inkscape:window-height="1440" inkscape:window-maximized="0" inkscape:window-width="3440" inkscape:window-x="0" inkscape:window-y="0" inkscape:zoom="5.0976562" objecttolerance="10" pagecolor="#808080" showgrid="false">
	</sodipodi:namedview>
<g>
	<g id="Layer_1-2">
		<g id="Box">
			<path class="st0" d="M199.1,60.9c0,21-17.1,38.1-38.1,38.1l0,0H19.9C9,99,0.1,90.2,0.1,79.3S9,59.5,19.9,59.5
				c1.5,0,3,0.2,4.5,0.5c-0.1-1.1-0.1-2.3,0-3.4C24.3,44.2,34.4,34,46.9,34c4.2,0,8.3,1.1,11.8,3.3C66,11.6,92.8-3.3,118.6,4
				c11.7,3.3,21.7,10.9,28,21.3c4.6-1.8,9.4-2.8,14.3-2.8C182,22.6,199.1,39.8,199.1,60.9z"/>
		</g>
	</g>
</g>
<g>
	<path class="st1" d="M83.4,64V41.8h20.7c4.8,0,8.6,1.4,11.4,4.2c2.8,2.8,4.3,6.4,4.3,10.7c0,4.3-1.4,7.9-4.3,10.7
		c-2.8,2.8-6.6,4.2-11.4,4.2H91.4v8.1l-8,5.6V71.6V64z M91.4,64h12.1c2.7,0,4.7-0.7,6.1-2.1c1.4-1.4,2.1-3.1,2.1-5.2
		c0-2.1-0.7-3.8-2.1-5.2c-1.4-1.4-3.5-2.1-6.1-2.1H91.4V64z"/>
	<path class="st1" d="M124.7,51.6v-5.8l7.2-5v10.7h9.3l-3.7,6.8h-5.7v13.3c0,1.8,0.2,3.2,0.7,4.1c0.5,0.9,1.2,1.7,2.3,2.4l3.9,2.2
		l-3.2,5.7c-4-1.9-6.8-3.8-8.4-5.5c-1.6-1.8-2.4-4.3-2.4-7.5V58.4V51.6z"/>
</g>
</svg>
